<svg xmlns="http://www.w3.org/2000/svg" viewBox="0 0 123 123"><path fill="#65AC1E" d="M0 0h123v123H0z"/><g fill="#FFF"><path d="M15.4 76.9v16.5h16.5V76.9H15.4zm11.4 11.4h-6.4V82h6.4v6.3zM37 82h6.4v6.4H37z" opacity=".58"/><path d="M48.4 76.9h9.2c3.4 0 4.9 2.3 4.9 4.3 0 1.5-.6 2.4-2.1 3.3 1.9.7 3 2 3 4 0 2.4-1.7 4.9-5.8 4.9h-9.2V76.9zm5.1 12.8h3.3c1.2 0 1.7-.8 1.7-1.6 0 .3.2-1.4-1.6-1.4h-3.5v3zm0-6.3h2.7c1.2 0 1.7-.6 1.7-1.4 0-.2-.1-1.3-1.4-1.3h-3v2.7zm15.2-6.5H74l6.1 16.5h-5.5l-.8-2.5h-5.1l-.7 2.5h-5.4l6.1-16.5zm2.4 4.9l-1.4 5.5h3l-1.6-5.5zm17.4 0h5.1c0-2.8-2.1-5.4-7.1-5.4-5.5 0-7.2 3-7.2 5.2 0 3.6 4.4 4.5 4.5 4.6.7.2 3.4.9 4 1.2.6.2 1.1.7 1.1 1.3 0 1-1.1 1.4-2.1 1.4-.6 0-2.7-.2-2.7-2.4H79c0 2.9 2 6.2 7.6 6.2 6.2 0 7.5-3.7 7.5-5.7 0-1.6-.9-3.4-3-4.2-1.3-.5-3.3-1-4.4-1.3-.5-.2-2.3-.5-2.3-1.6 0-1.4 2.3-1.2 1.9-1.2 1.1 0 2.2.6 2.2 1.9zm6.5-4.9h12.6v4.3H100v2.9h6.8v4.2H100v5.1h-5.1z"/></g><path d="M22 106.5l-1.6-6h-1l-1.6 6h-.1l-1.4-6h-.9l1.8 7.1h1l1.6-6h.1l1.6 6h1l1.9-7.1h-.9l-1.5 6zm6.6-3.1c-.2-.3-.4-.5-.7-.7-.3-.2-.7-.3-1.1-.3-.3 0-.7.1-1 .2-.3.1-.6.3-.8.6-.2.2-.4.5-.5.8-.1.3-.2.7-.2 1.1 0 .4.1.8.2 1.1.1.3.3.6.5.9.2.2.5.4.8.6.3.1.7.2 1.1.2.6 0 1.1-.1 1.5-.4.4-.3.6-.7.7-1.3h-.8c-.1.3-.2.6-.5.8-.2.2-.5.3-.9.3-.3 0-.5 0-.7-.1-.2-.1-.4-.2-.5-.4-.1-.2-.2-.3-.3-.6-.1-.2-.1-.4-.1-.7h3.9c0-.3 0-.6-.1-1-.2-.5-.3-.8-.5-1.1m-3.4 1.2c0-.2.1-.4.1-.6.1-.2.2-.3.3-.5.1-.1.3-.2.5-.3.2-.1.4-.1.6-.1.2 0 .4 0 .6.1.2.1.3.2.5.3.1.1.2.3.3.5.1.2.1.4.1.6h-3zm9.9 2.4c-.3 0-.5-.1-.7-.2-.2-.1-.4-.3-.5-.4l-.3-.6c-.1-.2-.1-.5-.1-.7 0-.3 0-.5.1-.8.1-.2.1-.5.3-.7.1-.2.3-.3.5-.5.2-.1.5-.2.8-.2.4 0 .7.1.9.3.2.2.4.4.4.8h.8c0-.3-.1-.5-.2-.8-.1-.2-.3-.4-.5-.6-.2-.1-.4-.3-.7-.3-.3-.1-.5-.1-.8-.1-.4 0-.8.1-1.1.2-.3.1-.6.3-.8.6-.2.2-.4.5-.5.9-.1.3-.1.7-.1 1.1 0 .4.1.7.2 1.1.1.3.3.6.5.8.2.2.5.4.8.5.3.1.6.2 1 .2.7 0 1.2-.2 1.6-.5.4-.3.6-.8.7-1.4h-.8c-.1.4-.2.7-.4.9-.4.3-.7.4-1.1.4m4.9-4.4c-.3.2-.6.5-.8.9v-1.1h-.8v5.1h.8v-2.3c0-.3 0-.6.1-.9.1-.3.2-.5.3-.7.1-.2.3-.3.6-.4.2-.1.5-.1.9-.1v-.8H41c-.4.1-.8.2-1 .3m5.4.8c-.2-.3-.4-.5-.7-.7-.3-.2-.7-.3-1.1-.3-.3 0-.7.1-1 .2-.3.1-.6.3-.8.6-.2.2-.4.5-.5.8-.1.3-.2.7-.2 1.1 0 .4.1.8.2 1.1.1.3.3.6.5.9.2.2.5.4.8.6.3.1.7.2 1.1.2.6 0 1.1-.1 1.5-.4.4-.3.6-.7.7-1.3H45c-.1.3-.2.6-.5.8-.2.2-.5.3-.9.3-.3 0-.5 0-.7-.1-.2-.1-.4-.2-.5-.4-.1-.2-.2-.3-.3-.6-.1-.2-.1-.4-.1-.7h3.9c0-.3 0-.6-.1-1-.1-.5-.2-.8-.4-1.1m-3.4 1.2c0-.2.1-.4.1-.6.1-.2.2-.3.3-.5.1-.1.3-.2.5-.3.2-.1.4-.1.6-.1.2 0 .4 0 .6.1.2.1.3.2.5.3.1.1.2.3.3.5.1.2.1.4.1.6h-3zm9.1 2.3v-3.1c0-.3-.1-.5-.2-.7-.1-.2-.3-.3-.4-.4-.2-.1-.4-.2-.6-.2-.5-.1-1-.1-1.5 0-.3.1-.5.2-.7.3-.2.1-.4.3-.5.5-.1.2-.2.5-.2.8h.8c0-.4.2-.6.4-.8.2-.1.6-.2.9-.2h.4c.1 0 .3.1.4.1l.3.3c.1.1.1.3.1.5s-.1.3-.2.4c-.1.1-.2.2-.4.2s-.4.1-.6.1c-.2 0-.4.1-.7.1-.2 0-.4.1-.6.2-.2.1-.4.1-.6.3-.2.1-.3.3-.4.4-.1.2-.1.4-.1.7 0 .3 0 .5.1.7.1.2.2.3.4.4.2.1.3.2.5.2s.4.1.7.1c.4 0 .7-.1 1-.2.3-.1.6-.3.8-.6v-.1.1c0 .3.1.5.2.6.1.1.3.2.5.2s.4 0 .6-.1v-.7h-.2c-.1 0-.2 0-.2-.1m-.9-1.1c0 .1 0 .3-.1.4-.1.1-.2.3-.3.4-.1.1-.3.2-.5.3-.2.1-.5.1-.7.1h-.4c-.1 0-.2-.1-.3-.1-.1-.1-.2-.1-.2-.2-.1-.1-.1-.2-.1-.4s.1-.4.2-.5c.1-.1.2-.2.4-.3.2-.1.3-.1.5-.1s.4-.1.6-.1c.2 0 .4-.1.5-.1.2 0 .3-.1.4-.2v.8zm9.3-2.4c-.2-.3-.4-.5-.7-.7-.3-.2-.7-.3-1.1-.3-.3 0-.7.1-1 .2-.3.1-.6.3-.8.6-.2.2-.4.5-.5.8-.1.3-.2.7-.2 1.1 0 .4.1.8.2 1.1.1.3.3.6.5.9.2.2.5.4.8.6.3.1.7.2 1.1.2.6 0 1.1-.1 1.5-.4.4-.3.6-.7.7-1.3h-.8c-.1.3-.2.6-.5.8-.2.2-.5.3-.9.3-.3 0-.5 0-.7-.1-.2-.1-.4-.2-.5-.4-.1-.2-.2-.3-.3-.6-.1-.2-.1-.4-.1-.7h3.9c0-.3 0-.6-.1-1-.2-.5-.3-.8-.5-1.1m-3.4 1.2c0-.2.1-.4.1-.6.1-.2.2-.3.3-.5.1-.1.3-.2.5-.3.2-.1.4-.1.6-.1.2 0 .4 0 .6.1.2.1.3.2.5.3.1.1.2.3.3.5.1.2.1.4.1.6h-3zM66 107c-.3 0-.5-.1-.7-.2-.2-.1-.4-.3-.5-.4l-.3-.6c-.1-.2-.1-.5-.1-.7 0-.3 0-.5.1-.8.1-.2.1-.5.3-.7.1-.2.3-.3.5-.5.2-.1.5-.2.8-.2.4 0 .7.1.9.3.2.2.4.4.4.8h.8c0-.3-.1-.5-.2-.8-.1-.2-.3-.4-.5-.5-.2-.1-.4-.3-.7-.3-.3-.1-.5-.1-.8-.1-.4 0-.8.1-1.1.2-.3.1-.6.3-.8.6-.2.2-.4.5-.5.9-.1.3-.1.7-.1 1.1 0 .4.1.7.2 1.1s.3.6.5.8c.2.2.5.4.8.5.3.1.7.2 1 .2.7 0 1.2-.2 1.6-.5.4-.3.6-.8.7-1.4h-.8c-.1.4-.2.7-.4.9-.4.2-.7.3-1.1.3m7.2-4.1c-.1-.2-.3-.3-.5-.4-.2-.1-.5-.1-.8-.1-.2 0-.3 0-.5.1-.2 0-.3.1-.5.2-.1.1-.3.2-.4.3-.1.1-.2.2-.3.4v-2.7h-.8v7.1h.8v-2.9c0-.2 0-.5.1-.7.1-.2.2-.4.3-.5.1-.2.3-.3.5-.3.2-.1.4-.1.7-.1.3 0 .6.1.8.3.2.2.3.5.3.8v3.5h.8v-3.4c0-.3 0-.5-.1-.8-.2-.5-.3-.7-.4-.8m5.7.5c-.2-.3-.4-.5-.7-.7-.3-.2-.7-.3-1.1-.3-.3 0-.7.1-1 .2-.3.1-.6.3-.8.6-.2.2-.4.5-.5.8-.1.3-.2.7-.2 1.1 0 .4.1.8.2 1.1.1.3.3.6.5.9.2.2.5.4.8.6.3.1.7.2 1.1.2.6 0 1.1-.1 1.5-.4.4-.3.6-.7.7-1.3h-.8c-.1.3-.2.6-.5.8-.2.2-.5.3-.9.3-.3 0-.5 0-.7-.1-.2-.1-.4-.2-.5-.4-.1-.2-.2-.3-.3-.6-.1-.2-.1-.4-.1-.7h3.9c0-.3 0-.6-.1-1-.2-.5-.3-.8-.5-1.1m-3.4 1.2c0-.2.1-.4.1-.6.1-.2.2-.3.3-.5.1-.1.3-.2.5-.3.2-.1.4-.1.6-.1.2 0 .4 0 .6.1.2.1.3.2.5.3.1.1.2.3.3.5.1.2.1.4.1.6h-3zm11.7-1.9c-.1-.1-.3-.2-.5-.3-.2-.1-.4-.1-.7-.1-.3 0-.6.1-.9.2-.3.2-.5.4-.7.6v.1-.1c-.1-.3-.3-.5-.5-.7-.3-.1-.5-.2-.9-.2-.7 0-1.3.3-1.7.9v-.8h-.8v5.1h.8v-3.2c0-.1 0-.2.1-.4s.1-.3.2-.4l.4-.4c.2-.1.4-.2.7-.2.2 0 .4 0 .5.1.1.1.2.1.3.3.1.1.1.2.2.4v3.9h.8v-3.2c0-.4.1-.7.4-1 .2-.2.6-.4 1-.4.2 0 .4 0 .5.1.1.1.2.1.3.3.1.1.1.2.2.4v3.9h.8v-3.8c0-.3 0-.5-.1-.7-.2-.1-.3-.3-.4-.4m2.6-1.2H89v-1h.8v1zm0 1H89v5.1h.8v-5.1zm4.8 4.9c.2-.1.4-.3.5-.5.1-.2.2-.5.2-.8 0-.2 0-.4-.1-.6-.1-.2-.2-.3-.4-.4-.2-.1-.3-.2-.5-.3-.2-.1-.4-.1-.6-.2-.2 0-.4-.1-.6-.1-.2 0-.4-.1-.5-.2-.2-.1-.3-.1-.4-.2-.1-.1-.2-.2-.2-.4 0-.1 0-.3.1-.3.1-.1.2-.2.3-.2.1-.1.2-.1.4-.1h.8c.1 0 .3.1.4.1l.3.3c.1.1.1.2.1.4h.8c0-.3-.1-.6-.2-.8-.1-.2-.3-.4-.4-.5l-.6-.3c-.2 0-.5-.1-.8-.1-.2 0-.5 0-.7.1-.2.1-.4.1-.6.3-.2.1-.3.3-.4.4-.1.2-.2.4-.2.7 0 .3.1.6.2.8.2.2.4.3.6.4.2.1.5.2.8.2.3.1.6.1.8.2.3.1.5.2.6.3.2.1.3.3.3.5s0 .3-.1.4c-.1.1-.2.2-.3.2-.1.1-.3.1-.4.1h-.9c-.2 0-.3-.1-.5-.2l-.3-.3c-.1-.1-.1-.3-.1-.5h-.8c0 .3.1.6.2.8.1.2.3.4.5.5s.4.2.7.3c.5.1 1.1.1 1.6 0 0 .2.2.1.4 0m2.9-6.5h-.8v1.6h-.9v.7h.9v3.3c0 .2 0 .4.1.6 0 .1.1.3.2.3.1.1.2.1.4.2h1.2v-.7h-.7c-.1 0-.2 0-.2-.1-.1 0-.1-.1-.1-.2v-3.5h1.1v-.7h-1.1v-1.5zm-43.9 0h-.8v1.6h-.9v.7h.9v3.3c0 .2 0 .4.1.6 0 .1.1.3.2.3.1.1.2.1.4.2h1.2v-.7H54c-.1 0-.2 0-.2-.1-.1 0-.1-.1-.1-.2v-3.5h1.1v-.7h-1.1v-1.5zm46.9 2.7v-1.1h-.7v5.1h.8v-2.2c0-.3 0-.6.1-.9.1-.3.2-.5.3-.7.2-.2.4-.3.6-.4.2-.1.5-.1.9-.1v-.9c-.4 0-.8.1-1.1.3-.4.2-.7.5-.9.9m4.6 5.4l.3-.6 2.2-5.8h-.8l-1.5 4.3h-.1l-1.5-4.2h-.9l2.1 5.1-.4.9c-.1.2-.2.3-.3.4-.1.1-.3.1-.4.1h-.3c-.1 0-.1 0-.2-.1v.7c.1 0 .2.1.3.1h.3c.2 0 .4 0 .5-.1.1 0 .3-.1.4-.2.1-.3.2-.5.3-.6" fill="#FFF"/><path fill="none" d="M15.4 61.5V123m15.3-61.5V123m15.4-61.5V123m15.4-61.5V123m15.4-61.5V123m15.4-61.5V123m15.3-61.5V123M0 92.3h123M0 107.6h123M0 76.9h123"/></svg>