<?xml version="1.0" encoding="UTF-8"?>
<svg version="1.1" xmlns="http://www.w3.org/2000/svg" width="245" height="80">
<path d="M0 0 C10.56 0 21.12 0 32 0 C32 10.89 32 21.78 32 33 C33.98 33 35.96 33 38 33 C38 22.11 38 11.22 38 0 C51.2 0 64.4 0 78 0 C78 13.86 78 27.72 78 42 C75.03 42 72.06 42 69 42 C69 31.11 69 20.22 69 9 C67.02 9 65.04 9 63 9 C63 19.89 63 30.78 63 42 C60.03 42 57.06 42 54 42 C54 31.11 54 20.22 54 9 C51.69 9 49.38 9 47 9 C47 19.89 47 30.78 47 42 C38.75 42 30.5 42 22 42 C22 31.11 22 20.22 22 9 C20.02 9 18.04 9 16 9 C16 19.89 16 30.78 16 42 C13.03 42 10.06 42 7 42 C7 31.11 7 20.22 7 9 C4.69 9 2.38 9 0 9 C0 6.03 0 3.06 0 0 Z " fill="#0071BB" transform="translate(0,20)"/>
<path d="M0 0 C7.51953125 -0.390625 7.51953125 -0.390625 10 0 C11.82421875 2.015625 11.82421875 2.015625 13 4 C16.465 3.505 16.465 3.505 20 3 C20.33 3.99 20.66 4.98 21 6 C21.66 6 22.32 6 23 6 C23.33 5.01 23.66 4.02 24 3 C26.875 2.875 26.875 2.875 30 3 C30.66 3.66 31.32 4.32 32 5 C32.99 4.34 33.98 3.68 35 3 C37.5625 2.75 37.5625 2.75 40 3 C40.66 3.66 41.32 4.32 42 5 C42.99 4.34 43.98 3.68 45 3 C48.0625 2.875 48.0625 2.875 51 3 C52.74092486 3 54.48183497 2.98383453 56.22265625 2.96484375 C58.12337891 2.95130859 58.12337891 2.95130859 60.0625 2.9375 C61.33222656 2.92589844 62.60195312 2.91429687 63.91015625 2.90234375 C67 3 67 3 68 4 C68.33 2.68 68.66 1.36 69 0 C70.32 0 71.64 0 73 0 C73 0.99 73 1.98 73 3 C74.65 3 76.3 3 78 3 C80.32590854 6.63423209 80.16265833 9.77088331 80 14 C78.68 14.33 77.36 14.66 76 15 C76 12.36 76 9.72 76 7 C75.01 7 74.02 7 73 7 C73 9.64 73 12.28 73 15 C72.195625 14.814375 71.39125 14.62875 70.5625 14.4375 C69.716875 14.293125 68.87125 14.14875 68 14 C67.67 14.33 67.34 14.66 67 15 C64.0625 15.1875 64.0625 15.1875 61 15 C59 13 59 13 58.875 9.875 C58.91625 8.92625 58.9575 7.9775 59 7 C58.34 7 57.68 7 57 7 C56.67 9.64 56.34 12.28 56 15 C51.71 15 47.42 15 43 15 C43 14.34 43 13.68 43 13 C42.01 13.66 41.02 14.32 40 15 C37 15.125 37 15.125 34 15 C33.01 15 32.02 15 31 15 C28.33333333 15 25.66666667 15 23 15 C23 14.34 23 13.68 23 13 C22.01 13.66 21.02 14.32 20 15 C16.9375 15.125 16.9375 15.125 14 15 C13.34 15 12.68 15 12 15 C10.68 15 9.36 15 8 15 C8 13.35 8 11.7 8 10 C6.35 9.67 4.7 9.34 3 9 C3 10.98 3 12.96 3 15 C2.01 15 1.02 15 0 15 C0 10.05 0 5.1 0 0 Z M3 3 C3 3.99 3 4.98 3 6 C4.65 6 6.3 6 8 6 C7.67 5.01 7.34 4.02 7 3 C5.68 3 4.36 3 3 3 Z M11 6 C10.67 6.66 10.34 7.32 10 8 C10.66 8 11.32 8 12 8 C11.67 7.34 11.34 6.68 11 6 Z M63 7 C62.67 8.32 62.34 9.64 62 11 C63.32 11 64.64 11 66 11 C66 10.34 66 9.68 66 9 C66.99 8.67 67.98 8.34 69 8 C66.03 7.505 66.03 7.505 63 7 Z M15 10 C15.33 10.66 15.66 11.32 16 12 C16.99 12 17.98 12 19 12 C19 11.34 19 10.68 19 10 C17.68 10 16.36 10 15 10 Z M35 10 C35.33 10.66 35.66 11.32 36 12 C36.99 12 37.98 12 39 12 C39 11.34 39 10.68 39 10 C37.68 10 36.36 10 35 10 Z M47 10 C46.67 10.66 46.34 11.32 46 12 C46.66 12 47.32 12 48 12 C47.67 11.34 47.34 10.68 47 10 Z " fill="#0071BB" transform="translate(165,42)"/>
<path d="M0 0 C3.22809958 3.14532779 4.90187175 5.88064091 5.11352539 10.4519043 C5.10828857 11.39976807 5.10305176 12.34763184 5.09765625 13.32421875 C5.09443359 14.35224609 5.09121094 15.38027344 5.08789062 16.43945312 C5.07951172 17.51130859 5.07113281 18.58316406 5.0625 19.6875 C5.05798828 20.77095703 5.05347656 21.85441406 5.04882812 22.97070312 C5.03703743 25.64719085 5.02058063 28.32356777 5 31 C2.03 31 -0.94 31 -4 31 C-4.04898438 29.59105469 -4.09796875 28.18210937 -4.1484375 26.73046875 C-4.22347003 24.88279261 -4.29901766 23.03513733 -4.375 21.1875 C-4.4059375 20.25873047 -4.436875 19.32996094 -4.46875 18.37304688 C-4.50742188 17.48037109 -4.54609375 16.58769531 -4.5859375 15.66796875 C-4.63306885 14.43469849 -4.63306885 14.43469849 -4.68115234 13.17651367 C-4.88373622 10.71047063 -4.88373622 10.71047063 -7 8 C-10.29075996 8.37904208 -10.29075996 8.37904208 -13 10 C-13.15686249 11.55948542 -13.25076639 13.12542668 -13.31640625 14.69140625 C-13.35830078 15.63564453 -13.40019531 16.57988281 -13.44335938 17.55273438 C-13.48267578 18.54595703 -13.52199219 19.53917969 -13.5625 20.5625 C-13.60568359 21.55958984 -13.64886719 22.55667969 -13.69335938 23.58398438 C-13.79980298 26.0558415 -13.90181928 28.5278031 -14 31 C-15.47906892 31.02689216 -16.95827483 31.04634621 -18.4375 31.0625 C-19.26121094 31.07410156 -20.08492188 31.08570313 -20.93359375 31.09765625 C-23 31 -23 31 -24 30 C-24.10003289 27.86646826 -24.13081048 25.72962458 -24.1328125 23.59375 C-24.13410156 22.29308594 -24.13539062 20.99242187 -24.13671875 19.65234375 C-24.13462402 18.97155762 -24.1325293 18.29077148 -24.13037109 17.58935547 C-24.1250224 15.50871485 -24.1303168 13.42829011 -24.13671875 11.34765625 C-24.13542969 10.04699219 -24.13414063 8.74632812 -24.1328125 7.40625 C-24.13168457 6.20291016 -24.13055664 4.99957031 -24.12939453 3.75976562 C-24 1 -24 1 -23 0 C-21.41736123 -0.046893 -19.83289002 -0.03746485 -18.25 0 C-15.46117593 0.03555158 -13.10688567 0.02290407 -10.375 -0.5625 C-6.79387473 -1.22218097 -3.48958346 -1.0804568 0 0 Z " fill="#A0B105" transform="translate(123,31)"/>
<path d="M0 0 C0.721875 0.00257812 1.44375 0.00515625 2.1875 0.0078125 C2.909375 0.00523438 3.63125 0.00265625 4.375 0 C6.1875 0.1328125 6.1875 0.1328125 7.1875 1.1328125 C7.32865161 3.80340101 7.22997107 6.45713488 7.1875 9.1328125 C7.991875 9.1121875 8.79625 9.0915625 9.625 9.0703125 C12.1875 9.1328125 12.1875 9.1328125 13.1875 10.1328125 C13.3125 12.6328125 13.3125 12.6328125 13.1875 15.1328125 C12.8575 15.4628125 12.5275 15.7928125 12.1875 16.1328125 C10.5375 16.1328125 8.8875 16.1328125 7.1875 16.1328125 C7.1875 21.4128125 7.1875 26.6928125 7.1875 32.1328125 C8.8375 32.1328125 10.4875 32.1328125 12.1875 32.1328125 C13.1875 33.1328125 13.1875 33.1328125 13.375 36.0703125 C13.1875 39.1328125 13.1875 39.1328125 11.1875 41.1328125 C8.91015625 41.1796875 8.91015625 41.1796875 6.25 40.8828125 C5.37472656 40.79515625 4.49945313 40.7075 3.59765625 40.6171875 C1.1875 40.1328125 1.1875 40.1328125 -1.8125 38.1328125 C-2.75387255 35.30869485 -2.92975382 33.60363218 -2.91015625 30.68359375 C-2.90693359 29.83603516 -2.90371094 28.98847656 -2.90039062 28.11523438 C-2.89201172 27.23416016 -2.88363281 26.35308594 -2.875 25.4453125 C-2.87048828 24.55263672 -2.86597656 23.65996094 -2.86132812 22.74023438 C-2.84954983 20.53769263 -2.83310164 18.33528651 -2.8125 16.1328125 C-4.4625 16.1328125 -6.1125 16.1328125 -7.8125 16.1328125 C-7.8125 13.8228125 -7.8125 11.5128125 -7.8125 9.1328125 C-6.1625 9.1328125 -4.5125 9.1328125 -2.8125 9.1328125 C-2.833125 7.8334375 -2.85375 6.5340625 -2.875 5.1953125 C-2.89649454 3.84115617 -2.88398199 2.48525167 -2.8125 1.1328125 C-1.8125 0.1328125 -1.8125 0.1328125 0 0 Z " fill="#A0B105" transform="translate(135.8125,21.8671875)"/>
<path d="M0 0 C1.51400391 0.01740234 1.51400391 0.01740234 3.05859375 0.03515625 C4.07050781 0.04417969 5.08242187 0.05320312 6.125 0.0625 C7.29869141 0.07990234 7.29869141 0.07990234 8.49609375 0.09765625 C8.49609375 1.41765625 8.49609375 2.73765625 8.49609375 4.09765625 C5.85609375 4.09765625 3.21609375 4.09765625 0.49609375 4.09765625 C0.49609375 4.75765625 0.49609375 5.41765625 0.49609375 6.09765625 C3.13609375 6.09765625 5.77609375 6.09765625 8.49609375 6.09765625 C8.49609375 7.41765625 8.49609375 8.73765625 8.49609375 10.09765625 C5.85609375 10.09765625 3.21609375 10.09765625 0.49609375 10.09765625 C0.49609375 11.08765625 0.49609375 12.07765625 0.49609375 13.09765625 C3.13609375 13.09765625 5.77609375 13.09765625 8.49609375 13.09765625 C8.82609375 8.80765625 9.15609375 4.51765625 9.49609375 0.09765625 C12.79609375 0.09765625 16.09609375 0.09765625 19.49609375 0.09765625 C20.15609375 1.41765625 20.81609375 2.73765625 21.49609375 4.09765625 C22.15609375 4.09765625 22.81609375 4.09765625 23.49609375 4.09765625 C23.82609375 3.10765625 24.15609375 2.11765625 24.49609375 1.09765625 C27.54593371 -0.42726373 30.13843065 -0.13796923 33.49609375 0.09765625 C35.20703125 1.1953125 35.20703125 1.1953125 36.49609375 3.09765625 C36.7890625 6.234375 36.7890625 6.234375 36.68359375 9.78515625 C36.64298828 11.55439453 36.64298828 11.55439453 36.6015625 13.359375 C36.56675781 14.26300781 36.53195313 15.16664062 36.49609375 16.09765625 C34.72601661 16.17879731 32.95487277 16.2369113 31.18359375 16.28515625 C30.19746094 16.31996094 29.21132812 16.35476562 28.1953125 16.390625 C25.49609375 16.09765625 25.49609375 16.09765625 23.640625 14.5859375 C23.26292969 14.09480469 22.88523438 13.60367188 22.49609375 13.09765625 C22.49609375 14.08765625 22.49609375 15.07765625 22.49609375 16.09765625 C21.17609375 16.09765625 19.85609375 16.09765625 18.49609375 16.09765625 C18.16609375 14.11765625 17.83609375 12.13765625 17.49609375 10.09765625 C15.84609375 10.09765625 14.19609375 10.09765625 12.49609375 10.09765625 C12.49609375 12.07765625 12.49609375 14.05765625 12.49609375 16.09765625 C10.01685574 16.1245072 7.53790535 16.14442172 5.05859375 16.16015625 C4.35154297 16.16853516 3.64449219 16.17691406 2.91601562 16.18554688 C1.10915816 16.19419213 -0.69778228 16.14985636 -2.50390625 16.09765625 C-3.50390625 15.09765625 -3.50390625 15.09765625 -3.63671875 11.97265625 C-3.63414062 10.69390625 -3.6315625 9.41515625 -3.62890625 8.09765625 C-3.63148438 6.81890625 -3.6340625 5.54015625 -3.63671875 4.22265625 C-3.462996 0.13506225 -3.462996 0.13506225 0 0 Z M12.49609375 4.09765625 C12.49609375 5.08765625 12.49609375 6.07765625 12.49609375 7.09765625 C14.47609375 6.76765625 16.45609375 6.43765625 18.49609375 6.09765625 C18.49609375 5.43765625 18.49609375 4.77765625 18.49609375 4.09765625 C16.51609375 4.09765625 14.53609375 4.09765625 12.49609375 4.09765625 Z M26.49609375 4.09765625 C26.49609375 6.73765625 26.49609375 9.37765625 26.49609375 12.09765625 C28.97109375 12.59265625 28.97109375 12.59265625 31.49609375 13.09765625 C32.15609375 12.10765625 32.81609375 11.11765625 33.49609375 10.09765625 C31.84609375 10.09765625 30.19609375 10.09765625 28.49609375 10.09765625 C28.49609375 9.10765625 28.49609375 8.11765625 28.49609375 7.09765625 C30.14609375 7.09765625 31.79609375 7.09765625 33.49609375 7.09765625 C33.16609375 6.10765625 32.83609375 5.11765625 32.49609375 4.09765625 C30.51609375 4.09765625 28.53609375 4.09765625 26.49609375 4.09765625 Z " fill="#0071BB" transform="translate(193.50390625,21.90234375)"/>
<path d="M0 0 C13.85835095 -0.8435518 13.85835095 -0.8435518 17.109375 1.55859375 C18.4375 3.5 18.4375 3.5 20 7 C20.33 4.69 20.66 2.38 21 0 C21.99 0 22.98 0 24 0 C24 5.28 24 10.56 24 16 C22.68 16 21.36 16 20 16 C18.02 12.535 18.02 12.535 16 9 C15.67 11.31 15.34 13.62 15 16 C10.05 16 5.1 16 0 16 C0 10.72 0 5.44 0 0 Z M3 4 C3 4.66 3 5.32 3 6 C5.31 6 7.62 6 10 6 C10 7.32 10 8.64 10 10 C7.69 10 5.38 10 3 10 C3 10.99 3 11.98 3 13 C5.64 13 8.28 13 11 13 C11 10.03 11 7.06 11 4 C8.36 4 5.72 4 3 4 Z " fill="#0071BB" transform="translate(165,22)"/>
<path d="M0 0 C2.97 0 5.94 0 9 0 C9 10.23 9 20.46 9 31 C6.03 31 3.06 31 0 31 C0 20.77 0 10.54 0 0 Z " fill="#A0B105" transform="translate(87,31)"/>
<path d="M0 0 C0.99 0 1.98 0 3 0 C3 13.53 3 27.06 3 41 C2.01 41 1.02 41 0 41 C0 27.47 0 13.94 0 0 Z " fill="#A0B105" transform="translate(155,22)"/>
<path d="M0 0 C1.32 0 2.64 0 4 0 C4.66 1.65 5.32 3.3 6 5 C6.763125 4.175 7.52625 3.35 8.3125 2.5 C11 0 11 0 14 0 C13.60804405 2.82208283 13.30181534 4.62273082 11.5 6.875 C9.4418235 9.79075004 9.33659116 12.49945198 9 16 C7.68 15.67 6.36 15.34 5 15 C4.731875 13.948125 4.46375 12.89625 4.1875 11.8125 C3.12648043 8.40606874 1.83773523 6.00720311 0 3 C0 2.01 0 1.02 0 0 Z " fill="#0071BB" transform="translate(230,22)"/>
<path d="M0 0 C2.97 0 5.94 0 9 0 C9.09765625 6.15234375 9.09765625 6.15234375 9 8 C8 9 8 9 6.15234375 9.09765625 C4.1015625 9.06510417 2.05078125 9.03255208 0 9 C0 6.03 0 3.06 0 0 Z " fill="#A0B105" transform="translate(87,20)"/>
</svg>
